<svg width="1280" height="420" viewBox="0 0 1280 420" fill="none" xmlns="http://www.w3.org/2000/svg">
  <rect width="1280" height="420" rx="28" fill="#0F172A"/>
  <rect x="36" y="34" width="1208" height="352" rx="24" fill="url(#panel)"/>
  <circle cx="1170" cy="80" r="150" fill="#F59E0B" fill-opacity="0.12"/>
  <circle cx="90" cy="360" r="170" fill="#2563EB" fill-opacity="0.14"/>

  <rect x="78" y="86" width="320" height="220" rx="24" fill="#0B1326" stroke="#2B3A59"/>
  <rect x="104" y="112" width="14" height="14" rx="7" fill="#4ADE80"/>
  <rect x="126" y="112" width="14" height="14" rx="7" fill="#FACC15"/>
  <rect x="148" y="112" width="14" height="14" rx="7" fill="#FB7185"/>
  <rect x="104" y="148" width="176" height="16" rx="8" fill="#2F3E5F"/>
  <rect x="104" y="180" width="250" height="96" rx="16" fill="#182742"/>

  <text x="438" y="122" fill="#F5F7FB" font-family="Segoe UI, Microsoft YaHei, sans-serif" font-size="18" font-weight="700">QPROXYHUB</text>
  <text x="438" y="184" fill="#FFFFFF" font-family="Segoe UI, Microsoft YaHei, sans-serif" font-size="54" font-weight="800">本地代理测试工作台</text>
  <text x="438" y="228" fill="#C7D1E5" font-family="Segoe UI, Microsoft YaHei, sans-serif" font-size="24">实时测试 · 历史复测 · 多客户端导出</text>

  <rect x="438" y="266" width="170" height="44" rx="22" fill="#F8F2E9"/>
  <rect x="620" y="266" width="170" height="44" rx="22" fill="#F8F2E9"/>
  <rect x="802" y="266" width="170" height="44" rx="22" fill="#F8F2E9"/>
  <text x="490" y="294" fill="#26344E" font-family="Segoe UI, Microsoft YaHei, sans-serif" font-size="18" font-weight="700">实时进度</text>
  <text x="672" y="294" fill="#26344E" font-family="Segoe UI, Microsoft YaHei, sans-serif" font-size="18" font-weight="700">详细结果</text>
  <text x="854" y="294" fill="#26344E" font-family="Segoe UI, Microsoft YaHei, sans-serif" font-size="18" font-weight="700">导出中心</text>

  <defs>
    <linearGradient id="panel" x1="36" y1="34" x2="1244" y2="386" gradientUnits="userSpaceOnUse">
      <stop stop-color="#16223A"/>
      <stop offset="1" stop-color="#1E2C46"/>
    </linearGradient>
  </defs>
</svg>
