<svg width="1280" height="760" viewBox="0 0 1280 760" fill="none" xmlns="http://www.w3.org/2000/svg">
  <rect width="1280" height="760" rx="24" fill="#ECE4D7"/>
  <rect x="24" y="24" width="1232" height="712" rx="20" fill="#FCFAF5" stroke="#DDCEBA"/>

  <rect x="56" y="56" width="370" height="640" rx="18" fill="#F7EEDF" stroke="#D8C6AF"/>
  <text x="84" y="102" fill="#1E2A3F" font-family="Segoe UI, Microsoft YaHei, sans-serif" font-size="34" font-weight="800">输入区</text>
  <rect x="84" y="124" width="314" height="420" rx="14" fill="#FFFFFF" stroke="#D8C6AF"/>
  <rect x="104" y="152" width="230" height="10" rx="5" fill="#D2D9E3"/>
  <rect x="104" y="174" width="262" height="10" rx="5" fill="#D2D9E3"/>
  <rect x="104" y="196" width="248" height="10" rx="5" fill="#D2D9E3"/>
  <rect x="104" y="218" width="270" height="10" rx="5" fill="#D2D9E3"/>
  <rect x="104" y="240" width="218" height="10" rx="5" fill="#D2D9E3"/>
  <rect x="84" y="564" width="130" height="46" rx="23" fill="#9E5A28"/>
  <rect x="228" y="564" width="92" height="46" rx="23" fill="#EDE3D5"/>
  <text x="122" y="593" fill="#FFFFFF" font-family="Segoe UI, Microsoft YaHei, sans-serif" font-size="18" font-weight="700">开始测试</text>
  <text x="258" y="593" fill="#6E604C" font-family="Segoe UI, Microsoft YaHei, sans-serif" font-size="18" font-weight="700">停止</text>

  <rect x="448" y="56" width="776" height="306" rx="18" fill="#F7EEDF" stroke="#D8C6AF"/>
  <text x="476" y="102" fill="#1E2A3F" font-family="Segoe UI, Microsoft YaHei, sans-serif" font-size="34" font-weight="800">实时进度</text>
  <rect x="476" y="124" width="720" height="126" rx="14" fill="#FFFFFF" stroke="#D8C6AF"/>
  <text x="504" y="170" fill="#1E2A3F" font-family="Segoe UI, Microsoft YaHei, sans-serif" font-size="24" font-weight="700">Finished ｜ passed 4, failed 9, invalid 1</text>
  <text x="1112" y="170" fill="#1E2A3F" font-family="Segoe UI, Microsoft YaHei, sans-serif" font-size="24" font-weight="700">13 / 13</text>
  <rect x="504" y="198" width="664" height="16" rx="8" fill="#E7D3BA"/>
  <rect x="504" y="198" width="664" height="16" rx="8" fill="#B56A2A"/>

  <rect x="476" y="268" width="168" height="76" rx="14" fill="#FFFFFF" stroke="#D8C6AF"/>
  <rect x="658" y="268" width="168" height="76" rx="14" fill="#FFFFFF" stroke="#D8C6AF"/>
  <rect x="840" y="268" width="168" height="76" rx="14" fill="#FFFFFF" stroke="#D8C6AF"/>
  <rect x="1022" y="268" width="174" height="76" rx="14" fill="#FFFFFF" stroke="#D8C6AF"/>
  <text x="500" y="315" fill="#1E2A3F" font-family="Segoe UI, Microsoft YaHei, sans-serif" font-size="24" font-weight="700">总数 13</text>
  <text x="682" y="315" fill="#2E7A50" font-family="Segoe UI, Microsoft YaHei, sans-serif" font-size="24" font-weight="700">通过 4</text>
  <text x="864" y="315" fill="#B34A4A" font-family="Segoe UI, Microsoft YaHei, sans-serif" font-size="24" font-weight="700">失败 9</text>
  <text x="1048" y="315" fill="#6C5E4B" font-family="Segoe UI, Microsoft YaHei, sans-serif" font-size="24" font-weight="700">无效 1</text>

  <rect x="448" y="382" width="776" height="314" rx="18" fill="#F7EEDF" stroke="#D8C6AF"/>
  <text x="476" y="428" fill="#1E2A3F" font-family="Segoe UI, Microsoft YaHei, sans-serif" font-size="34" font-weight="800">详细结果</text>
  <rect x="476" y="450" width="720" height="220" rx="14" fill="#FFFFFF" stroke="#D8C6AF"/>
  <rect x="500" y="476" width="672" height="34" rx="10" fill="#EFE2D2"/>
  <rect x="500" y="522" width="672" height="42" rx="10" fill="#E7F4EA"/>
  <rect x="500" y="572" width="672" height="42" rx="10" fill="#F9E5E5"/>
  <text x="522" y="498" fill="#5E697A" font-family="Segoe UI, Microsoft YaHei, sans-serif" font-size="16" font-weight="700">状态 / 协议 / 国家 / 主机 / 端口 / 延迟 / 说明</text>
  <text x="522" y="548" fill="#2E7A50" font-family="Segoe UI, Microsoft YaHei, sans-serif" font-size="16" font-weight="700">Passed · socks5 · Hong Kong · change5.owlproxy.com · 3909ms</text>
  <text x="522" y="598" fill="#B34A4A" font-family="Segoe UI, Microsoft YaHei, sans-serif" font-size="16" font-weight="700">Failed · socks5 · United States · change4.owlproxy.com · Timeout</text>
</svg>
