<svg width="1280" height="760" viewBox="0 0 1280 760" fill="none" xmlns="http://www.w3.org/2000/svg">
  <rect width="1280" height="760" rx="24" fill="#EFE8DC"/>
  <rect x="24" y="24" width="1232" height="712" rx="20" fill="#FCFAF5" stroke="#DDCEBA"/>

  <text x="64" y="92" fill="#1E2A3F" font-family="Segoe UI, Microsoft YaHei, sans-serif" font-size="42" font-weight="800">结果分析视图</text>
  <text x="64" y="128" fill="#5C6778" font-family="Segoe UI, Microsoft YaHei, sans-serif" font-size="22">支持排序、筛选、单条复制、多条复制与状态聚焦</text>

  <rect x="64" y="160" width="1152" height="528" rx="20" fill="#F7EEDF" stroke="#D8C6AF"/>
  <rect x="92" y="194" width="1096" height="56" rx="14" fill="#FFFFFF" stroke="#D8C6AF"/>
  <rect x="112" y="212" width="320" height="22" rx="11" fill="#EDF1F6"/>
  <rect x="824" y="206" width="120" height="34" rx="17" fill="#EEE6DB"/>
  <rect x="956" y="206" width="120" height="34" rx="17" fill="#EEE6DB"/>
  <rect x="1088" y="206" width="88" height="34" rx="17" fill="#9E5A28"/>
  <text x="1118" y="229" fill="#FFFFFF" font-family="Segoe UI, Microsoft YaHei, sans-serif" font-size="16" font-weight="700">复制行</text>

  <rect x="92" y="270" width="1096" height="388" rx="14" fill="#FFFFFF" stroke="#D8C6AF"/>
  <rect x="112" y="294" width="1056" height="34" rx="10" fill="#EFE2D2"/>
  <text x="132" y="316" fill="#5E697A" font-family="Segoe UI, Microsoft YaHei, sans-serif" font-size="14" font-weight="700">状态</text>
  <text x="220" y="316" fill="#5E697A" font-family="Segoe UI, Microsoft YaHei, sans-serif" font-size="14" font-weight="700">协议</text>
  <text x="300" y="316" fill="#5E697A" font-family="Segoe UI, Microsoft YaHei, sans-serif" font-size="14" font-weight="700">国家</text>
  <text x="420" y="316" fill="#5E697A" font-family="Segoe UI, Microsoft YaHei, sans-serif" font-size="14" font-weight="700">主机</text>
  <text x="770" y="316" fill="#5E697A" font-family="Segoe UI, Microsoft YaHei, sans-serif" font-size="14" font-weight="700">用户名</text>
  <text x="920" y="316" fill="#5E697A" font-family="Segoe UI, Microsoft YaHei, sans-serif" font-size="14" font-weight="700">延迟</text>
  <text x="1000" y="316" fill="#5E697A" font-family="Segoe UI, Microsoft YaHei, sans-serif" font-size="14" font-weight="700">说明</text>

  <rect x="112" y="340" width="1056" height="56" rx="10" fill="#E7F4EA"/>
  <rect x="112" y="406" width="1056" height="56" rx="10" fill="#F9E5E5"/>
  <rect x="112" y="472" width="1056" height="56" rx="10" fill="#E7F4EA"/>
  <rect x="112" y="538" width="1056" height="56" rx="10" fill="#F9E5E5"/>

  <rect x="132" y="358" width="70" height="20" rx="10" fill="#DFF1E4"/>
  <rect x="132" y="424" width="70" height="20" rx="10" fill="#F8DEDE"/>
  <rect x="132" y="490" width="70" height="20" rx="10" fill="#DFF1E4"/>
  <rect x="132" y="556" width="70" height="20" rx="10" fill="#F8DEDE"/>
  <text x="152" y="372" fill="#2E7A50" font-family="Segoe UI, Microsoft YaHei, sans-serif" font-size="12" font-weight="700">Passed</text>
  <text x="155" y="438" fill="#B34A4A" font-family="Segoe UI, Microsoft YaHei, sans-serif" font-size="12" font-weight="700">Failed</text>
  <text x="152" y="504" fill="#2E7A50" font-family="Segoe UI, Microsoft YaHei, sans-serif" font-size="12" font-weight="700">Passed</text>
  <text x="155" y="570" fill="#B34A4A" font-family="Segoe UI, Microsoft YaHei, sans-serif" font-size="12" font-weight="700">Failed</text>

  <text x="220" y="372" fill="#1E2A3F" font-family="Segoe UI, Microsoft YaHei, sans-serif" font-size="14">socks5</text>
  <text x="300" y="372" fill="#1E2A3F" font-family="Segoe UI, Microsoft YaHei, sans-serif" font-size="14">Hong Kong</text>
  <text x="420" y="372" fill="#1E2A3F" font-family="Segoe UI, Microsoft YaHei, sans-serif" font-size="14">change5.owlproxy.com</text>
  <text x="770" y="372" fill="#1E2A3F" font-family="Segoe UI, Microsoft YaHei, sans-serif" font-size="14">xgVti..._sid_5821...</text>
  <text x="920" y="372" fill="#1E2A3F" font-family="Segoe UI, Microsoft YaHei, sans-serif" font-size="14">3909ms</text>
  <text x="1000" y="372" fill="#1E2A3F" font-family="Segoe UI, Microsoft YaHei, sans-serif" font-size="14">delay=3909ms</text>
</svg>
