<svg width="1280" height="760" viewBox="0 0 1280 760" fill="none" xmlns="http://www.w3.org/2000/svg">
  <rect width="1280" height="760" rx="24" fill="#EFE8DC"/>
  <rect x="24" y="24" width="1232" height="712" rx="20" fill="#FCFAF5" stroke="#DDCEBA"/>

  <text x="64" y="92" fill="#1E2A3F" font-family="Segoe UI, Microsoft YaHei, sans-serif" font-size="42" font-weight="800">导出与历史中心</text>
  <text x="64" y="128" fill="#5C6778" font-family="Segoe UI, Microsoft YaHei, sans-serif" font-size="22">按来源、范围、格式导出，支持从历史任务一键复测</text>

  <rect x="64" y="160" width="756" height="528" rx="20" fill="#F7EEDF" stroke="#D8C6AF"/>
  <text x="92" y="206" fill="#1E2A3F" font-family="Segoe UI, Microsoft YaHei, sans-serif" font-size="30" font-weight="800">导出中心</text>
  <rect x="92" y="228" width="332" height="72" rx="14" fill="#FFFFFF" stroke="#D8C6AF"/>
  <rect x="460" y="228" width="332" height="72" rx="14" fill="#FFFFFF" stroke="#D8C6AF"/>
  <rect x="92" y="316" width="332" height="72" rx="14" fill="#FFFFFF" stroke="#D8C6AF"/>
  <rect x="460" y="316" width="332" height="72" rx="14" fill="#FFFFFF" stroke="#D8C6AF"/>

  <text x="114" y="258" fill="#1E2A3F" font-family="Segoe UI, Microsoft YaHei, sans-serif" font-size="14" font-weight="700">导出来源</text>
  <text x="114" y="284" fill="#667184" font-family="Segoe UI, Microsoft YaHei, sans-serif" font-size="16">当前任务</text>
  <text x="482" y="258" fill="#1E2A3F" font-family="Segoe UI, Microsoft YaHei, sans-serif" font-size="14" font-weight="700">导出范围</text>
  <text x="482" y="284" fill="#667184" font-family="Segoe UI, Microsoft YaHei, sans-serif" font-size="16">仅通过</text>
  <text x="114" y="346" fill="#1E2A3F" font-family="Segoe UI, Microsoft YaHei, sans-serif" font-size="14" font-weight="700">导出格式</text>
  <text x="114" y="372" fill="#667184" font-family="Segoe UI, Microsoft YaHei, sans-serif" font-size="16">TXT / CSV / JSON / 客户端配置</text>
  <text x="482" y="346" fill="#1E2A3F" font-family="Segoe UI, Microsoft YaHei, sans-serif" font-size="14" font-weight="700">客户端目标</text>
  <text x="482" y="372" fill="#667184" font-family="Segoe UI, Microsoft YaHei, sans-serif" font-size="16">mihomo / Clash Verge / v2rayN / NekoBox</text>

  <rect x="92" y="414" width="132" height="48" rx="24" fill="#9E5A28"/>
  <rect x="238" y="414" width="132" height="48" rx="24" fill="#EEE6DB"/>
  <rect x="384" y="414" width="132" height="48" rx="24" fill="#EEE6DB"/>
  <text x="128" y="444" fill="#FFFFFF" font-family="Segoe UI, Microsoft YaHei, sans-serif" font-size="18" font-weight="700">执行导出</text>
  <text x="264" y="444" fill="#6E604C" font-family="Segoe UI, Microsoft YaHei, sans-serif" font-size="18" font-weight="700">重试失败</text>
  <text x="410" y="444" fill="#6E604C" font-family="Segoe UI, Microsoft YaHei, sans-serif" font-size="18" font-weight="700">重测全部</text>

  <rect x="92" y="486" width="700" height="86" rx="14" fill="#FFF9EE" stroke="#D8C6AF"/>
  <text x="114" y="536" fill="#9C702F" font-family="Segoe UI, Microsoft YaHei, sans-serif" font-size="20">Export created: ...\exports\export-2026-04-24-passed.yaml</text>

  <rect x="844" y="160" width="372" height="528" rx="20" fill="#F7EEDF" stroke="#D8C6AF"/>
  <text x="872" y="206" fill="#1E2A3F" font-family="Segoe UI, Microsoft YaHei, sans-serif" font-size="30" font-weight="800">历史任务</text>
  <rect x="872" y="230" width="316" height="144" rx="14" fill="#FFFFFF" stroke="#D8C6AF"/>
  <rect x="872" y="392" width="316" height="144" rx="14" fill="#FFFFFF" stroke="#D8C6AF"/>
  <rect x="872" y="554" width="316" height="110" rx="14" fill="#FFFFFF" stroke="#D8C6AF"/>
  <text x="896" y="270" fill="#1E2A3F" font-family="Segoe UI, Microsoft YaHei, sans-serif" font-size="24" font-weight="700">Finished</text>
  <text x="896" y="304" fill="#5D687A" font-family="Segoe UI, Microsoft YaHei, sans-serif" font-size="16">Total 13 · Pass 4 · Fail 9</text>
  <text x="896" y="332" fill="#5D687A" font-family="Segoe UI, Microsoft YaHei, sans-serif" font-size="14">proxy-test-2026-04-24T07-32.csv</text>
  <text x="896" y="432" fill="#1E2A3F" font-family="Segoe UI, Microsoft YaHei, sans-serif" font-size="24" font-weight="700">Finished</text>
  <text x="896" y="466" fill="#5D687A" font-family="Segoe UI, Microsoft YaHei, sans-serif" font-size="16">Total 1 · Pass 0 · Fail 1</text>
  <text x="896" y="494" fill="#5D687A" font-family="Segoe UI, Microsoft YaHei, sans-serif" font-size="14">proxy-test-2026-04-24T07-28.csv</text>
  <text x="896" y="596" fill="#1E2A3F" font-family="Segoe UI, Microsoft YaHei, sans-serif" font-size="18" font-weight="700">点击历史任务可回放快照</text>
  <text x="896" y="626" fill="#5D687A" font-family="Segoe UI, Microsoft YaHei, sans-serif" font-size="16">并可直接从历史执行复测与导出</text>
</svg>
